<svg xmlns="http://www.w3.org/2000/svg" width="74.333" height="74.333" viewBox="0 0 74.333 74.333">
  <path id="Github" d="M37.653.333C17.127.333.333,17.476.333,38.428a37.992,37.992,0,0,0,25.5,36.189,1.9,1.9,0,0,0,2.488-1.9V66.363c-10.263,2.222-12.44-5.079-12.44-5.079C14.328,56.84,11.84,55.57,11.84,55.57c-3.732-2.222,0-2.222,0-2.222,3.732.317,5.6,3.809,5.6,3.809,3.421,5.714,8.708,4.127,10.885,3.174a7.113,7.113,0,0,1,2.488-5.079c-8.4-.953-17.1-4.127-17.1-18.73a15.517,15.517,0,0,1,3.732-10.158c0-1.27-1.555-5.079.622-10.158,0,0,3.11-.952,10.263,3.809a31.491,31.491,0,0,1,9.33-1.27,31.491,31.491,0,0,1,9.33,1.27c7.153-5.079,10.263-3.809,10.263-3.809a13.566,13.566,0,0,1,.311,10.158A14.059,14.059,0,0,1,61.29,36.523c0,14.6-8.708,17.777-17.105,18.73a9.659,9.659,0,0,1,2.488,6.984V72.713a1.9,1.9,0,0,0,2.488,1.9,37.992,37.992,0,0,0,25.5-36.189C74.973,17.476,58.179.333,37.653.333Z" transform="translate(-0.333 -0.333)" fill="#00dc82" fill-rule="evenodd"/>
</svg>
