<svg xmlns="http://www.w3.org/2000/svg" width="25" height="25.001" viewBox="0 0 25 25.001">
  <path id="phone" d="M5.661,23.339a12.5,12.5,0,1,0,0-17.678A12.5,12.5,0,0,0,5.661,23.339ZM11.206,6.726l1.86,1.86a1.175,1.175,0,0,1,.193,1.406l-.7,1.241a.781.781,0,0,0,.129.937l4.141,4.141a.781.781,0,0,0,.937.128l1.241-.7a1.173,1.173,0,0,1,1.406.193l1.861,1.861a1.175,1.175,0,0,1,0,1.66l-.881.881a3.135,3.135,0,0,1-3.786.493l-.084-.048A24.54,24.54,0,0,1,8.656,12.1l-.423-.706A3.128,3.128,0,0,1,8.7,7.57l.844-.844a1.173,1.173,0,0,1,1.66,0Z" transform="translate(-2 -2)" fill="#00dc82"/>
</svg>
