<svg xmlns="http://www.w3.org/2000/svg" width="19.906" height="20.025" viewBox="0 0 19.906 20.025">
  <path id="whatsapp" d="M16.6,14c-.2-.1-1.5-.7-1.7-.8a.471.471,0,0,0-.6.1c-.2.2-.6.8-.8,1-.1.2-.3.2-.5.1a8.175,8.175,0,0,1-2-1.2,11.511,11.511,0,0,1-1.4-1.7.44.44,0,0,1,.1-.5c.1-.1.2-.3.4-.4a.758.758,0,0,0,.2-.4.3.3,0,0,0,0-.4A17.776,17.776,0,0,1,9.5,8c-.1-.7-.3-.7-.5-.7H8.5a1.141,1.141,0,0,0-.6.3A2.878,2.878,0,0,0,7,9.7a5.238,5.238,0,0,0,1,2.6A10.662,10.662,0,0,0,12.2,16a7.838,7.838,0,0,0,1.4.5,2.856,2.856,0,0,0,1.6.1,2.591,2.591,0,0,0,1.7-1.2,1.672,1.672,0,0,0,.1-1.2l-.4-.2m2.5-9.1a9.968,9.968,0,0,0-15.7,12L2,22l5.3-1.4A9.953,9.953,0,0,0,12,21.8h0a9.859,9.859,0,0,0,9.9-9.9,9.74,9.74,0,0,0-2.8-7m-2.7,14A8.392,8.392,0,0,1,12,20.2h0a8.769,8.769,0,0,1-4.2-1.1l-.3-.2-3.1.8.8-3L5,16.4A8.4,8.4,0,0,1,7.7,4.9,8.135,8.135,0,0,1,19,7.5a8.252,8.252,0,0,1-2.6,11.4" transform="translate(-2 -1.975)" fill="#00dc82"/>
</svg>
