<svg xmlns="http://www.w3.org/2000/svg"  viewBox="0 0 61.56 66.702">
  <path id="electronjs" d="M21.756,14.333a27.21,27.21,0,0,0-5.542-.556,28.007,28.007,0,0,0-6.09.667l.186-.033a10.42,10.42,0,0,0-6.868,4.731l-.025.044A9.233,9.233,0,0,0,2.138,23.9a9.464,9.464,0,0,0,.111,1.44l-.006-.053a19.081,19.081,0,0,0,2.588,7.249l-.047-.083a1.079,1.079,0,0,0,.336.336l.006,0a.933.933,0,0,0,.45.114h.042a.811.811,0,0,0,.57-.264.783.783,0,0,0,.264-.567v-.014a.863.863,0,0,0-.039-.256l0,.006a.571.571,0,0,1-.039-.189,17.054,17.054,0,0,1-2.338-6.268l-.014-.1a7.913,7.913,0,0,1,.937-5.192l-.019.039a9.181,9.181,0,0,1,6.037-4.011l.056-.008a24.7,24.7,0,0,1,5.173-.534,25.4,25.4,0,0,1,5.34.564l-.167-.031h.011a.153.153,0,0,1,.1.039l.039.039h.017a.873.873,0,0,0,.628-.264.886.886,0,0,0,.264-.634V15.2a.92.92,0,0,0-.192-.561l0,0a.929.929,0,0,0-.486-.3h-.006ZM9.323,38.591a62.334,62.334,0,0,0,6.021,5.556l.117.092a55.956,55.956,0,0,0,6.632,4.595l.261.145a61.261,61.261,0,0,0,9.27,4.328l.442.145A45.777,45.777,0,0,0,41,55.8l.275.036a27.763,27.763,0,0,0,4.536.361,29.139,29.139,0,0,0,3.608-.225l-.142.014a14.4,14.4,0,0,0,6.2-2.2l-.058.033a1.8,1.8,0,0,0,.261-.334l.006-.008a.778.778,0,0,0,.114-.409v-.017a.9.9,0,0,0-.9-.9h-.011a.557.557,0,0,0-.225.078l0,0a.853.853,0,0,0-.222.153,12.815,12.815,0,0,1-5.648,1.929l-.053,0a26.274,26.274,0,0,1-2.955.161,27.4,27.4,0,0,1-4.711-.406l.164.022a47.613,47.613,0,0,1-8.97-2.382l.328.108a51.816,51.816,0,0,1-9.253-4.414l.233.131a56.384,56.384,0,0,1-7.052-4.759l.117.089a51.654,51.654,0,0,1-5.921-5.465l-.031-.033a1,1,0,0,0-.334-.22l-.006,0a.891.891,0,0,0-.339-.075H10a.9.9,0,0,0-.9.9v.011a.633.633,0,0,0,.078.306l0,0Zm43.9-1.137a26.228,26.228,0,0,0,5.634-9.631l.053-.186a10.258,10.258,0,0,0,.57-3.408A10.461,10.461,0,0,0,58.2,19.2l.028.056a9.6,9.6,0,0,0-4.561-3.994l-.064-.022A18.729,18.729,0,0,0,46.33,13.8h-.114a.757.757,0,0,0-.575.264.95.95,0,0,0-.222.614v.061a.943.943,0,0,0,.225.614v0a.748.748,0,0,0,.575.264h.031c.139-.006.306-.006.47-.006a16.035,16.035,0,0,1,6.157,1.22l-.106-.039a8.483,8.483,0,0,1,3.922,3.263l.019.033a9.087,9.087,0,0,1,.976,4.122,9.231,9.231,0,0,1-.578,3.219l.019-.064a24.807,24.807,0,0,1-5.209,8.959l.017-.019-.15.3a.643.643,0,0,0-.075.3v.011a.9.9,0,0,0,.9.9h.033A.618.618,0,0,0,53,37.707h0a1.922,1.922,0,0,1,.292-.183l.011-.006ZM38.586,14.639a57.964,57.964,0,0,0-8.878,2.832l.389-.142a58.6,58.6,0,0,0-7.933,3.905l.278-.153a57.131,57.131,0,0,0-8.828,6.24l.075-.061a46.79,46.79,0,0,0-6.518,6.791l-.078.1a26.966,26.966,0,0,0-3.916,6.827l-.064.183a12.894,12.894,0,0,0-.942,4.878,13.354,13.354,0,0,0,.111,1.712l-.008-.067a1.126,1.126,0,0,0,.3.531.816.816,0,0,0,.564.222H3.2a.9.9,0,0,0,.9-.9v-.161a11.593,11.593,0,0,1-.069-1.293,11.838,11.838,0,0,1,.948-4.661l-.031.078a25.09,25.09,0,0,1,3.816-6.568l-.036.047a45.647,45.647,0,0,1,6.3-6.463l.069-.056a57.787,57.787,0,0,1,8.214-5.8l.275-.15a52.9,52.9,0,0,1,6.752-3.391L30.7,19a50.548,50.548,0,0,1,7.51-2.463l.372-.078a1.848,1.848,0,0,0,.834-.386l0,0a.816.816,0,0,0,.222-.564v-.044a.811.811,0,0,0-.264-.57.783.783,0,0,0-.567-.264h-.222Zm-21.15,38.57a27.523,27.523,0,0,0,5.782,9.915L23.2,63.1a10.415,10.415,0,0,0,7.566,3.6h.017a9.643,9.643,0,0,0,5.784-1.987l-.022.017A18.3,18.3,0,0,0,41.349,59.3l.047-.089a1.735,1.735,0,0,0,.108-.25l.006-.014a.8.8,0,0,0,.039-.25v-.028a.9.9,0,0,0-.9-.9h-.017a.789.789,0,0,0-.414.117l0,0a1.079,1.079,0,0,0-.336.336l0,.006a17.119,17.119,0,0,1-4.247,4.939l-.036.028A7.955,7.955,0,0,1,30.792,64.9h-.006a8.921,8.921,0,0,1-6.471-3.244l-.011-.017A25.32,25.32,0,0,1,19.24,52.8l-.05-.181a2.057,2.057,0,0,0-.375-.414l0,0a.8.8,0,0,0-.517-.189h-.014a.811.811,0,0,0-.57.264.886.886,0,0,0-.264.634v.314Zm27.29-1.59a47.872,47.872,0,0,0,1.709-7.452l.033-.278a55.683,55.683,0,0,0,.606-8.322v-.748a59.792,59.792,0,0,0-.965-10.726l.056.364a45.5,45.5,0,0,0-2.688-9.439l.111.306a27.824,27.824,0,0,0-4.025-7.032l.044.058A13.775,13.775,0,0,0,34.65,4.291l-.081-.036a.256.256,0,0,0-.183-.075h-.225a.943.943,0,0,0-.614.225h0a.752.752,0,0,0-.264.575v.053a.932.932,0,0,0,.153.514l0,0a.746.746,0,0,0,.372.3l.006,0a12.481,12.481,0,0,1,4.564,3.794l.025.033a27.021,27.021,0,0,1,3.575,6.374l.064.183a42.457,42.457,0,0,1,2.385,8.4l.039.27a55.052,55.052,0,0,1,.873,9.909v.712a55.175,55.175,0,0,1-.645,8.439l.039-.306a49.979,49.979,0,0,1-1.918,8.161l.1-.353.075-.222v.086a.9.9,0,0,0,.9.9h.025a.816.816,0,0,0,.52-.189.956.956,0,0,0,.3-.395l0-.006Zm16.83-.912v-.056a4.079,4.079,0,0,0-1.248-2.941,4.16,4.16,0,0,0-2.98-1.251h-.145a4.273,4.273,0,0,0-4.192,4.192V50.8a4.156,4.156,0,0,0,1.251,2.98,4.075,4.075,0,0,0,2.944,1.254h.145A4.266,4.266,0,0,0,61.56,50.8v-.1Zm-1.821,0v.056a2.458,2.458,0,0,1-2.443,2.443h-.064a2.443,2.443,0,0,1-1.734-.72,2.356,2.356,0,0,1-.759-1.734v-.044a2.591,2.591,0,0,1,2.5-2.5h.044a2.358,2.358,0,0,1,1.732.756l0,0a2.449,2.449,0,0,1,.72,1.737v.006ZM4.319,55.04h.053a4.079,4.079,0,0,0,2.941-1.248A4.169,4.169,0,0,0,8.567,50.81v-.142a4.072,4.072,0,0,0-1.251-2.941,4.082,4.082,0,0,0-2.941-1.251H4.231a4.156,4.156,0,0,0-2.98,1.251A4.082,4.082,0,0,0,0,50.668v.145a4.156,4.156,0,0,0,1.251,2.98A4.168,4.168,0,0,0,4.228,55.04h.1Zm0-1.821H4.264a2.458,2.458,0,0,1-2.443-2.443v-.064a2.443,2.443,0,0,1,.72-1.734,2.356,2.356,0,0,1,1.734-.759h.044a2.4,2.4,0,0,1,1.743.756,2.39,2.39,0,0,1,.759,1.743v.044a2.358,2.358,0,0,1-.756,1.732l0,0a2.447,2.447,0,0,1-1.726.709H4.319ZM30.781,8.568h.092a4.16,4.16,0,0,0,2.98-1.251,4.075,4.075,0,0,0,1.254-2.944V4.23a4.16,4.16,0,0,0-1.251-2.98A4.16,4.16,0,0,0,30.876,0h-.145A4.072,4.072,0,0,0,27.79,1.25,4.16,4.16,0,0,0,26.54,4.23v.145A4.072,4.072,0,0,0,27.79,7.315a4.082,4.082,0,0,0,2.941,1.251h.044Zm0-1.818h-.019a2.322,2.322,0,0,1-1.684-.72,2.322,2.322,0,0,1-.72-1.684V4.268a2.412,2.412,0,0,1,.72-1.723,2.322,2.322,0,0,1,1.684-.72h.078a2.458,2.458,0,0,1,2.443,2.443v.075a2.322,2.322,0,0,1-.72,1.684,2.41,2.41,0,0,1-1.726.723Zm.684,31.309a.749.749,0,0,1-.328.075h-.409a3.1,3.1,0,0,1-3.058-3.06v-.114a2.861,2.861,0,0,1,.909-2.1l0,0a3.05,3.05,0,0,1,2.14-.873h.117a3.016,3.016,0,0,1,1.918.687l-.006,0a2.976,2.976,0,0,1,1.056,1.648l0,.019v.031a1.707,1.707,0,0,0,.039.359l0-.011a1.159,1.159,0,0,1,.039.3v.058A3.016,3.016,0,0,1,33.2,37l0-.006a3.006,3.006,0,0,1-1.721,1.062l-.019,0Z" transform="translate(0 0.001)" fill="#00dc82"/>
</svg>
