<svg xmlns="http://www.w3.org/2000/svg" width="143.765" height="143.765" viewBox="0 0 143.765 143.765"><path id="Exclusion_1" data-name="Exclusion 1" d="M143.765,143.765H0V0H143.765V143.765ZM96.574,112.32h0l-11,6.369c2.608,5.154,9.273,13.8,24.609,13.8,13.6,0,22.388-7.387,22.388-18.818,0-11.319-6.581-16.355-17.95-21.228L111.243,91a23.446,23.446,0,0,1-6.321-3.523,5.841,5.841,0,0,1-1.978-4.681c0-3.409,2.659-5.79,6.466-5.79,3.873,0,6.389,1.677,8.685,5.79l10.52-6.759c-4.247-7.475-10.17-10.809-19.206-10.809-11.648,0-19.783,7.342-19.783,17.854,0,11.83,7.792,16.778,16.213,20.362l3.377,1.448c6.138,2.685,9.843,4.306,9.843,8.975a5.79,5.79,0,0,1-2.484,4.777,11.14,11.14,0,0,1-6.683,1.882,13.826,13.826,0,0,1-8.07-2.328,18.5,18.5,0,0,1-5.248-5.875ZM48.8,113.483l-11,6.657c2.657,5.634,8.329,12.351,20.264,12.351,13.007,0,20.17-7.232,20.17-20.363V66H64.725v45.938c0,3.221-.64,5.438-1.956,6.779-1.147,1.169-2.826,1.713-5.283,1.713a7.21,7.21,0,0,1-5.283-2.063A20.539,20.539,0,0,1,48.8,113.483Z" fill="#00dc82"/></svg>