<svg xmlns="http://www.w3.org/2000/svg"  viewBox="0 0 138.744 98.27">
  <g id="nuxt-dot-js" transform="translate(0.002 -4)">
    <path id="Path_1" data-name="Path 1" d="M100.336,102.27h-90.2a10.035,10.035,0,0,1-8.8-5.029,9.721,9.721,0,0,1-.012-9.827L46.432,9.052A10.028,10.028,0,0,1,55.236,4h0a10.033,10.033,0,0,1,8.81,5.052l45.1,78.362a9.724,9.724,0,0,1-.006,9.821A10.045,10.045,0,0,1,100.336,102.27Zm-45.1-89.6a1.43,1.43,0,0,0-1.289.705L8.841,91.738a1.1,1.1,0,0,0,0,1.156,1.445,1.445,0,0,0,1.295.705h90.2a1.436,1.436,0,0,0,1.295-.705,1.1,1.1,0,0,0,0-1.156L56.53,13.376A1.444,1.444,0,0,0,55.236,12.671Z" transform="translate(0)" fill="#00dc82"/>
    <path id="Path_2" data-name="Path 2" d="M96.516,93.01H16.339a9.529,9.529,0,0,1-8.272-4.729,8.99,8.99,0,0,1,.035-9.1L48.2,10.6a9.41,9.41,0,0,1,8.226-4.665h0A9.426,9.426,0,0,1,64.654,10.6l40.088,68.57a8.966,8.966,0,0,1,.04,9.1A9.5,9.5,0,0,1,96.516,93.01Zm-40.088-78.4a.84.84,0,0,0-.746.364L15.588,83.553c.081.549.283.786.751.786H96.516a.8.8,0,0,0,.751-.376L57.174,14.984A.815.815,0,0,0,56.428,14.614Z" transform="translate(32.74 9.26)" fill="#00dc82"/>
  </g>
</svg>
