<svg xmlns="http://www.w3.org/2000/svg" viewBox="0 0 31.985 23.999">
  <path id="sass_1_" data-name="sass (1)" d="M27.533,13.8l.132,0a5.229,5.229,0,0,1,2.323.54l-.031-.014A3.908,3.908,0,0,1,31.5,15.655l.009.014a2.748,2.748,0,0,1,.477,1.555c0,.042,0,.084,0,.125v-.006a2.074,2.074,0,0,1-.7,1.448l0,0a2.188,2.188,0,0,1-.785.5l-.015,0q-.25.05-.275-.075t.225-.275a1.956,1.956,0,0,0,.9-1.237l0-.013c0-.042,0-.091,0-.141a1.918,1.918,0,0,0-.2-.865l0,.011A2.736,2.736,0,0,0,30.2,15.6l-.01-.006a4.543,4.543,0,0,0-2.083-.7h-.016a6.047,6.047,0,0,0-.872-.061,6.223,6.223,0,0,0-2.27.426l.042-.015a3.187,3.187,0,0,1,.249,1.144v0a2.377,2.377,0,0,1-1.145,1.99l-.011.006a5.013,5.013,0,0,1-1.041.563L23,18.968a1.787,1.787,0,0,1-.782.177c-.033,0-.065,0-.1,0h0q-.949-.2-.45-1.65a3.654,3.654,0,0,1,.6-1.107l-.006.007a7.114,7.114,0,0,1,1.089-1.141l.011-.009-.1-.146a6.277,6.277,0,0,1-.486-1.054L22.782,14q-.15-.5-.25-.949l-.05-.35-.5.949q-.65,1.2-1.25,2.1l-.15.25a5.191,5.191,0,0,1,.348,1.375l0,.025c0,.047.006.1.006.159a2.251,2.251,0,0,1-.948,1.837l-.007,0a8.992,8.992,0,0,1-.94.5l-.06.025a3.465,3.465,0,0,1-1.191.275h-.009c-.033,0-.072,0-.111,0a1.621,1.621,0,0,1-.7-.158l.01,0a.589.589,0,0,1-.149-.7l0,0a16.923,16.923,0,0,1,1.213-1.515l-.013.015,1.1-1.4-.2-.45a6.6,6.6,0,0,1-.436-1l-.014-.048q-.15-.5-.25-.949l-.05-.35-.5,1.2q-.6,1.4-1.1,2.4-.747,1.5-1.25,2.3l-.1.15q-.6.949-1.15.949t-.747-.7a4.323,4.323,0,0,1-.152-1.147c0-.036,0-.072,0-.108v0l.1-.7v.05q-.4.949-.8,1.749a6.618,6.618,0,0,1-.563.919l.013-.019a1.125,1.125,0,0,1-.817.35H11.11c-.021,0-.045,0-.069,0a.977.977,0,0,1-.657-.253h0a2.972,2.972,0,0,1-.742-1.3l-.005-.021a4.552,4.552,0,0,1-.258-1.529c0-.071,0-.141.005-.21v.01a10.031,10.031,0,0,1,.471-2.22l-.021.071-1.8,1.05v.05a4.282,4.282,0,0,1,.414,1.85c0,.123-.005.245-.015.365v-.016a5.478,5.478,0,0,1-.913,2.77l.013-.02A4.99,4.99,0,0,1,5.222,23.6l-.033.012A4.484,4.484,0,0,1,3.364,24a4.539,4.539,0,0,1-1.208-.162l.032.007a1.375,1.375,0,0,1-.743-.593l0-.006a2.32,2.32,0,0,1-.4-1.2v-.006a3.189,3.189,0,0,1-.017-.337,3.286,3.286,0,0,1,.326-1.432l-.009.02a6.506,6.506,0,0,1,2.316-2.33l.03-.016a17.4,17.4,0,0,1,2.247-1.309l.106-.047.25-.15q-.45-.35-1.65-1.2a25.85,25.85,0,0,1-2.874-2.221l.025.022A5.454,5.454,0,0,1,.048,10.231L.04,10.193A3.13,3.13,0,0,1,0,9.682,3.213,3.213,0,0,1,.4,8.127L.39,8.144A8.911,8.911,0,0,1,2.678,5.109L2.69,5.1A16.486,16.486,0,0,1,6.152,2.593l.087-.043A23.355,23.355,0,0,1,10.068.8l.17-.052A12.736,12.736,0,0,1,14.534,0h0c.07,0,.153,0,.236,0a7.847,7.847,0,0,1,3.459.8L18.185.777A3.352,3.352,0,0,1,20.029,2.9l.006.024A4.363,4.363,0,0,1,20.165,4,4.493,4.493,0,0,1,19.8,5.78l.011-.029a7.684,7.684,0,0,1-1.8,2.647l0,0a8.124,8.124,0,0,1-2.718,1.78l-.055.019a10.224,10.224,0,0,1-3.63.8h-.019a5.75,5.75,0,0,1-.639.034,6.018,6.018,0,0,1-1.7-.244l.043.011a3.5,3.5,0,0,1-1.254-.7l0,0a2.28,2.28,0,0,1-.594-.734l-.006-.013q-.15-.4-.025-.475t.175-.025l.25.25a2.825,2.825,0,0,0,.98.593l.02.006a5.33,5.33,0,0,0,2.273.247l-.023,0a9.939,9.939,0,0,0,4.336-1.573l-.037.023a7.145,7.145,0,0,0,2.531-2.54l.018-.034a2.826,2.826,0,0,0,.289-2.6l.007.019a2.463,2.463,0,0,0-1.685-1.122l-.014,0a7.749,7.749,0,0,0-1.825-.213,7.971,7.971,0,0,0-1.524.146l.05-.008A16.175,16.175,0,0,0,8.649,3.588l.091-.043q-6.148,3.1-6.349,6.349v.049a3.252,3.252,0,0,0,.9,2.252h0A12.481,12.481,0,0,0,5.4,14.067l.039.026a16.661,16.661,0,0,1,1.9,1.649v0l.1.1,3.2-1.749a5.405,5.405,0,0,1,1.308-1.334l.016-.011a2.594,2.594,0,0,1,1.465-.6h.009c.02,0,.043,0,.067,0a.9.9,0,0,1,.831.547l0,.006a1.971,1.971,0,0,1,.166.8,2.055,2.055,0,0,1-.017.261v-.01l-.1.493.15-.1a.626.626,0,0,1,.629-.073l0,0a.44.44,0,0,1,.331.426.431.431,0,0,1-.012.1v0l-.15.55q-.45,1.8-.6,2.6a2.109,2.109,0,0,0-.078.578c0,.043,0,.085,0,.127v-.006q.025.3.075.3t.2-.3l.15-.35q.05,0,0,.05l.55-1.15q1.95-4.3,2.1-4.8l.3-.949q.05-.1.4-.2a3.061,3.061,0,0,1,.788-.1h.065q.7,0,.7.35l-.05.25a8.76,8.76,0,0,0-.309,1.087l-.011.063a2.849,2.849,0,0,0-.032.429,2.944,2.944,0,0,0,.059.59l0-.019.05.2a3.913,3.913,0,0,0,.46,1.117l-.01-.017q.6-1,1.15-2.049a9.864,9.864,0,0,0,.777-1.629l.023-.07a7.8,7.8,0,0,1,.266-1.005l-.016.056q.05-.15.427-.225A4.068,4.068,0,0,1,23.56,10h.034q.7,0,.747.35l-.1.2a7.073,7.073,0,0,0-.293,1.155l-.006.045c-.009.1-.015.209-.015.323a3.579,3.579,0,0,0,.069.7l0-.023v.2a4.007,4.007,0,0,0,.51,1.166l-.01-.016.15.35a6.5,6.5,0,0,1,2.855-.65h.037ZM6.094,21.049a4,4,0,0,0,.942-3.975l.008.028-.8.5a11.642,11.642,0,0,0-2.161,1.574l.008-.007a3.524,3.524,0,0,0-1.019,1.674l-.006.025q-.225.925.225,1.2A1.525,1.525,0,0,0,4.6,22.039l-.009,0a3.735,3.735,0,0,0,1.5-1l0,0Zm6.7-4.6q.25-.65.55-1.55.4-1.2.275-1.4t-.475-.05a2.05,2.05,0,0,0-.7.547l0,0a6.958,6.958,0,0,0-.582.866l-.018.034a4.722,4.722,0,0,0-.492,1.116l-.009.034a5.125,5.125,0,0,0-.305,1.758c0,.085,0,.169.006.253v-.012q.05,1,.32,1.075t.625-.725a7.233,7.233,0,0,0,.585-1.4l.014-.054q.149-.354.2-.5Zm5.546,2.65a2.112,2.112,0,0,0,1.249-1.741V17.3l-.55.7-1,1.1a.064.064,0,0,0-.025.05.067.067,0,0,0,.024.05q.048.049.3-.1Zm4.3-.95a1.782,1.782,0,0,0,1.3-1.712V16.4a2.126,2.126,0,0,0-.1-.566l0,.015a4.036,4.036,0,0,0-.939,1.227l-.011.023q-.451.9-.252,1.048Z" transform="translate(0.001)" fill="#00dc82"/>
</svg>
