<svg id="tailwindcss" xmlns="http://www.w3.org/2000/svg"  viewBox="0 0 256 153.6">
  <path id="Path_1" data-name="Path 1" d="M128,0Q76.8,0,64,51.2,83.2,25.6,108.8,32c9.737,2.434,16.7,9.5,24.4,17.318C145.751,62.057,160.275,76.8,192,76.8q51.2,0,64-51.2-19.2,25.6-44.8,19.2c-9.737-2.434-16.7-9.5-24.4-17.318C174.249,14.743,159.725,0,128,0ZM64,76.8Q12.8,76.8,0,128q19.2-25.6,44.8-19.2c9.737,2.434,16.7,9.5,24.4,17.318C81.751,138.857,96.275,153.6,128,153.6q51.2,0,64-51.2-19.2,25.6-44.8,19.2c-9.737-2.434-16.7-9.5-24.4-17.318C110.249,91.543,95.725,76.8,64,76.8Z" fill="#00dc82"/>
</svg>
